<svg width="70" height="70" viewBox="0 0 70 70" fill="none" xmlns="http://www.w3.org/2000/svg">
<path fill-rule="evenodd" clip-rule="evenodd" d="M52.5 28.0254L52.4998 28.1183C52.4996 28.1575 52.4991 28.1967 52.4987 28.2358C52.4996 28.2815 52.5 28.3277 52.5 28.3741C52.5 35.6722 46.814 42.1321 43.0093 46.4553C41.9053 47.7096 40.9596 48.7841 40.3572 49.6468C38.2143 52.7157 37.0834 56.0402 36.7857 57.3188C36.7857 58.2818 35.9863 59.0625 35 59.0625C34.0137 59.0625 33.2143 58.2818 33.2143 57.3188C32.9166 56.0402 31.7857 52.7157 29.6428 49.6468C29.0404 48.7841 28.0947 47.7096 26.9907 46.4553C23.186 42.1321 17.5 35.6722 17.5 28.3741C17.5 28.3277 17.5004 28.2815 17.5013 28.2358C17.5004 28.1658 17.5 28.0956 17.5 28.0254C17.5 18.588 25.335 10.9375 35 10.9375C44.665 10.9375 52.5 18.588 52.5 28.0254ZM35 34.3026C38.7476 34.3026 41.7856 31.3359 41.7856 27.6767C41.7856 24.0172 38.7476 21.0507 35 21.0507C31.2524 21.0507 28.2144 24.0172 28.2144 27.6767C28.2144 31.3359 31.2524 34.3026 35 34.3026Z" fill="#34A851"/>
<path d="M50.5431 20.1655C48.4002 16.1338 44.6603 13.0413 40.1415 11.6873L30.0911 23.1032C31.3268 21.8389 33.0693 21.0513 35.0005 21.0513C38.7481 21.0513 41.7861 24.0178 41.7861 27.6771C41.7861 29.17 41.2806 30.5475 40.4274 31.6555L50.5431 20.1655Z" fill="#4285F5"/>
<path d="M27.193 46.6867C27.1258 46.6103 27.0582 46.5336 26.99 46.4561C24.482 43.6065 21.1566 39.8284 19.1812 35.4937L29.6272 23.6289C28.7409 24.7485 28.2134 26.1528 28.2134 27.6775C28.2134 31.3368 31.2517 34.3035 34.9993 34.3035C36.8976 34.3035 38.6139 33.5422 39.8455 32.3153L27.193 46.6867Z" fill="#F9BB0E"/>
<path d="M21.6407 16.9873C19.0577 19.965 17.5 23.8177 17.5 28.0256C17.5 28.0958 17.5004 28.166 17.5013 28.236C17.5004 28.2818 17.5 28.3279 17.5 28.3743C17.5 30.8617 18.1605 33.252 19.1819 35.4931L29.6104 23.6482L21.6407 16.9873Z" fill="#E74335"/>
<path d="M40.1405 11.6868C38.515 11.1997 36.7886 10.9375 34.9995 10.9375C29.6438 10.9375 24.8501 13.2866 21.6401 16.9871L29.6099 23.648L29.6272 23.6283C29.7722 23.4452 29.9266 23.2695 30.0901 23.1024L40.1405 11.6868Z" fill="#1A73E6"/>
</svg>
