<svg width="40" height="40" viewBox="0 0 40 40" fill="none" xmlns="http://www.w3.org/2000/svg">
<rect width="40" height="40" rx="10" fill="#E33745"/>
<path d="M25.4825 21.0001C25.4963 21.0001 25.5113 21.0001 25.5263 21.0001C25.815 21.0001 26.0963 21.0326 26.3663 21.0964L26.3413 21.0914L26.3213 21.2751C26.2363 22.0014 25.7025 22.5826 25.0075 22.7376L24.9963 22.7401C24.9488 22.7501 24.8938 22.7564 24.8375 22.7564C24.455 22.7564 24.135 22.4926 24.0475 22.1376L24.0463 22.1326C24.0413 22.0989 24.0388 22.0589 24.0388 22.0189C24.0388 21.8189 24.1088 21.6351 24.2263 21.4901L24.225 21.4914C24.455 21.2239 24.785 21.0489 25.1563 21.0226H25.16C25.255 21.0101 25.3675 21.0014 25.48 21.0014L25.4825 21.0001ZM35.9425 19.3476C36.3388 19.3476 36.5788 19.7039 36.5788 20.4426C36.5788 21.5151 36.1475 22.3964 35.6025 22.3964C35.1938 22.3964 34.9538 22.0276 34.9538 21.3001C34.9538 20.2164 35.3975 19.3476 35.9425 19.3476ZM9.9675 19.3476C10.3663 19.3476 10.605 19.7039 10.605 20.4426C10.605 21.5151 10.1738 22.3964 9.6275 22.3964C9.22 22.3964 8.98125 22.0276 8.98125 21.3001C8.98125 20.2164 9.42375 19.3476 9.96875 19.3476H9.9675ZM2.175 17.8989C2.0975 18.5076 2.01625 19.1139 1.90125 19.6639C2.41375 19.6514 2.86875 19.6389 4.105 19.6389L1.2775 22.7001L1.25375 23.7976C1.9475 23.7514 2.81125 23.7364 3.8 23.7364C4.68375 23.7364 5.57125 23.7489 6.13875 23.7976C6.24 23.0826 6.34125 22.6064 6.46625 22.0214C6.03625 22.0451 5.2875 22.0576 4.105 22.0576L6.9325 18.9814L6.96875 17.8976C6.28625 17.9339 5.6725 17.9439 4.595 17.9439C3.425 17.9439 3.0725 17.9326 2.175 17.8976V17.8989ZM10.1825 17.7576C8.365 17.8551 6.92875 19.3526 6.92875 21.1864C6.92875 21.2514 6.93 21.3151 6.93375 21.3789V21.3701C6.92625 21.4389 6.9225 21.5176 6.9225 21.5976C6.9225 22.9151 7.99 23.9826 9.3075 23.9826C9.35625 23.9826 9.40375 23.9814 9.45125 23.9789H9.445C11.2625 23.8851 12.7 22.3876 12.7 20.5564C12.7 20.4864 12.6975 20.4164 12.6938 20.3476V20.3576C12.7013 20.2876 12.705 20.2076 12.705 20.1251C12.705 18.8164 11.6438 17.7551 10.335 17.7551C10.2813 17.7551 10.2288 17.7564 10.1763 17.7601H10.1838L10.1825 17.7576ZM17.805 17.7451C16.7113 17.9264 15.825 18.6651 15.4375 19.6551L15.43 19.6764C15.5038 19.3164 15.5463 18.9039 15.5463 18.4801C15.5463 18.2426 15.5325 18.0076 15.5063 17.7764L15.5088 17.8051C14.915 17.9101 14.2213 17.9789 13.515 17.9951H13.4988C13.5025 18.0964 13.5038 18.2164 13.5038 18.3364C13.5038 18.9014 13.46 19.4551 13.3763 19.9964L13.3838 19.9364L13.1225 21.7251C13.02 22.4276 12.9075 23.2389 12.7925 23.7514H14.9063C14.9175 23.4401 14.9963 22.9526 15.0525 22.5239L15.2338 21.2964C15.3825 20.4976 16.0175 19.5564 16.5063 19.5564C16.79 19.5564 16.78 19.8314 16.7 20.3439L16.495 21.7264C16.3925 22.4289 16.28 23.2401 16.165 23.7526H18.3C18.3125 23.4414 18.38 22.9526 18.4375 22.5251L18.6188 21.2976C18.765 20.4976 19.4025 19.5576 19.89 19.5576C20.1738 19.5576 20.1638 19.8201 20.1175 20.1764L19.6063 23.7539H21.5563L22.24 19.6789C22.3888 18.6651 22.3088 17.7476 21.1838 17.7476C20.1213 17.9189 19.2563 18.6239 18.8638 19.5739L18.8563 19.5939C18.9925 18.6414 18.9125 17.7476 17.7988 17.7476L17.805 17.7451ZM36.2013 17.6801C34.36 17.7789 32.905 19.2951 32.905 21.1514C32.905 21.2176 32.9063 21.2826 32.91 21.3476V21.3389C32.9025 21.4089 32.8988 21.4901 32.8988 21.5714C32.8988 22.9051 33.98 23.9876 35.315 23.9876C35.3638 23.9876 35.4125 23.9864 35.46 23.9839H35.4538C37.295 23.8876 38.7513 22.3714 38.7513 20.5151C38.7513 20.4439 38.7488 20.3739 38.745 20.3039V20.3139C38.7525 20.2439 38.7563 20.1614 38.7563 20.0789C38.7563 18.7526 37.6813 17.6776 36.355 17.6776C36.3013 17.6776 36.2475 17.6789 36.195 17.6826H36.2025L36.2013 17.6801ZM25.9925 17.5826C25.79 17.5864 25.595 17.6014 25.4025 17.6264L25.4288 17.6239C24.6438 17.7139 23.9325 17.9539 23.2963 18.3126L23.3238 18.2976L23.73 19.5301C24.1713 19.2801 24.6863 19.1001 25.235 19.0239L25.2575 19.0214C26.0975 18.9189 26.44 19.1776 26.4913 19.6076C26.4975 19.6651 26.5013 19.7326 26.5013 19.8014C26.5013 19.8926 26.495 19.9814 26.4825 20.0689L26.4838 20.0589L26.4625 20.1464C26.1525 20.0826 25.7963 20.0464 25.43 20.0464C25.19 20.0464 24.9525 20.0626 24.7213 20.0926L24.7488 20.0901C23.9963 20.1476 23.335 20.4976 22.8713 21.0239L22.8688 21.0264C22.6238 21.3614 22.4775 21.7826 22.4775 22.2376C22.4775 22.3801 22.4925 22.5201 22.52 22.6551L22.5175 22.6414C22.6438 23.3514 23.255 23.8826 23.9913 23.8826C24.1325 23.8826 24.27 23.8626 24.4 23.8264L24.39 23.8289C25.0863 23.7526 25.6838 23.3851 26.0663 22.8514L26.0713 22.8439C26.0638 23.0189 26.0475 23.1826 26.0213 23.3426L26.025 23.3189C25.9975 23.4914 25.9575 23.6439 25.9063 23.7914L25.9125 23.7726L27.8563 23.7739C27.8463 23.5839 27.8458 23.3939 27.855 23.2039C27.9117 22.4872 28.0404 21.4193 28.2413 20.0001C28.2588 19.8651 28.2688 19.7101 28.2688 19.5514C28.2688 19.3839 28.2575 19.2201 28.2363 19.0589L28.2388 19.0776C28.1138 18.0714 27.2575 17.5639 25.9963 17.5814L25.9925 17.5826ZM31.895 16.0164L29.93 16.7551L29.6688 17.8639L28.9725 17.8964L28.7925 19.4239H29.43L29.1 21.7826C28.895 23.2489 29.1563 23.9401 30.4513 23.9401C31.1025 23.9289 31.7113 23.7589 32.2438 23.4664L32.2238 23.4764L32.45 22.0701C32.17 22.2226 31.8438 22.3289 31.4963 22.3664L31.485 22.3676C31.0988 22.3676 31.0538 22.1651 31.1338 21.6051L31.4288 19.4239H32.745C32.7925 19.1026 32.95 18.0539 32.995 17.8614H31.6438L31.895 16.0164Z" fill="white"/>
</svg>
